<svg width="15" height="15" viewBox="0 0 15 15" fill="none" xmlns="http://www.w3.org/2000/svg">
<path d="M11.8333 1C11.2587 1 10.7076 1.22827 10.3013 1.6346C9.89494 2.04093 9.66667 2.59203 9.66667 3.16667V11.8333C9.66667 12.408 9.89494 12.9591 10.3013 13.3654C10.7076 13.7717 11.2587 14 11.8333 14C12.408 14 12.9591 13.7717 13.3654 13.3654C13.7717 12.9591 14 12.408 14 11.8333C14 11.2587 13.7717 10.7076 13.3654 10.3013C12.9591 9.89494 12.408 9.66667 11.8333 9.66667H3.16667C2.59203 9.66667 2.04093 9.89494 1.6346 10.3013C1.22827 10.7076 1 11.2587 1 11.8333C1 12.408 1.22827 12.9591 1.6346 13.3654C2.04093 13.7717 2.59203 14 3.16667 14C3.7413 14 4.2924 13.7717 4.69873 13.3654C5.10506 12.9591 5.33333 12.408 5.33333 11.8333V3.16667C5.33333 2.59203 5.10506 2.04093 4.69873 1.6346C4.2924 1.22827 3.7413 1 3.16667 1C2.59203 1 2.04093 1.22827 1.6346 1.6346C1.22827 2.04093 1 2.59203 1 3.16667C1 3.7413 1.22827 4.2924 1.6346 4.69873C2.04093 5.10506 2.59203 5.33333 3.16667 5.33333H11.8333C12.408 5.33333 12.9591 5.10506 13.3654 4.69873C13.7717 4.2924 14 3.7413 14 3.16667C14 2.59203 13.7717 2.04093 13.3654 1.6346C12.9591 1.22827 12.408 1 11.8333 1Z" stroke="#EEECE9" stroke-width="1.5" stroke-linecap="round" stroke-linejoin="round"/>
</svg>
